<svg xmlns="http://www.w3.org/2000/svg" xmlns:xlink="http://www.w3.org/1999/xlink" width="441.749" height="355.031" viewBox="0 0 441.749 355.031">
  <defs>
    <linearGradient id="linear-gradient" y1="0.5" x2="1" y2="0.5" gradientUnits="objectBoundingBox">
      <stop offset="0" stop-color="#d4ecff"/>
      <stop offset="0.239" stop-color="#d0e9fd"/>
      <stop offset="0.46" stop-color="#c5e2f9"/>
      <stop offset="0.675" stop-color="#b2d5f1"/>
      <stop offset="0.884" stop-color="#98c4e7"/>
      <stop offset="1" stop-color="#86b8e0"/>
    </linearGradient>
    <linearGradient id="linear-gradient-2" y1="0.5" x2="1" y2="0.5" gradientUnits="objectBoundingBox">
      <stop offset="0" stop-color="#ff2c9c"/>
      <stop offset="0.312" stop-color="#fb289a"/>
      <stop offset="0.602" stop-color="#f01d96"/>
      <stop offset="0.881" stop-color="#dd0a90"/>
      <stop offset="1" stop-color="#d3008d"/>
    </linearGradient>
    <linearGradient id="linear-gradient-4" x1="0" y1="0.5" x2="1" y2="0.5" xlink:href="#linear-gradient-2"/>
    <linearGradient id="linear-gradient-5" x1="0" y1="0.5" x2="1" y2="0.5" xlink:href="#linear-gradient-2"/>
    <radialGradient id="radial-gradient" cx="0.5" cy="0.5" r="0.408" gradientTransform="translate(-0.366) scale(1.732 1)" gradientUnits="objectBoundingBox">
      <stop offset="0" stop-color="#173d7a"/>
      <stop offset="1" stop-color="#274f89"/>
    </radialGradient>
    <radialGradient id="radial-gradient-2" cx="0.5" cy="0.5" r="0.408" xlink:href="#radial-gradient"/>
    <radialGradient id="radial-gradient-3" cx="0.5" cy="0.5" r="0.408" xlink:href="#radial-gradient"/>
    <radialGradient id="radial-gradient-4" cx="0.5" cy="0.5" r="0.408" xlink:href="#radial-gradient"/>
    <radialGradient id="radial-gradient-5" cx="0.967" cy="0.944" r="1.063" gradientTransform="translate(-0.095) scale(1.19 1)" gradientUnits="objectBoundingBox">
      <stop offset="0" stop-color="#86b8e0"/>
      <stop offset="0.116" stop-color="#98c4e7"/>
      <stop offset="0.325" stop-color="#b2d5f1"/>
      <stop offset="0.54" stop-color="#c5e2f9"/>
      <stop offset="0.761" stop-color="#d0e9fd"/>
      <stop offset="1" stop-color="#d4ecff"/>
    </radialGradient>
    <radialGradient id="radial-gradient-6" cx="0.892" cy="0.72" r="0.788" gradientTransform="translate(-0.09) scale(1.18 1)" xlink:href="#radial-gradient"/>
    <radialGradient id="radial-gradient-7" cx="1.127" cy="0.6" r="2.077" gradientTransform="translate(0.211) scale(0.577 1)" xlink:href="#radial-gradient-5"/>
    <radialGradient id="radial-gradient-8" cx="0.234" cy="0.38" r="0.644" gradientTransform="translate(-0.287) scale(1.574 1)" gradientUnits="objectBoundingBox">
      <stop offset="0" stop-color="#396caa"/>
      <stop offset="1" stop-color="#274f89"/>
    </radialGradient>
    <linearGradient id="linear-gradient-9" x1="0.029" y1="0.235" x2="0.883" y2="0.916" xlink:href="#linear-gradient"/>
    <linearGradient id="linear-gradient-10" x1="-2.995" y1="4.653" x2="-1.869" y2="4.566" gradientUnits="objectBoundingBox">
      <stop offset="0" stop-color="#3919bb"/>
      <stop offset="1" stop-color="#6507fa"/>
    </linearGradient>
    <radialGradient id="radial-gradient-9" cx="0.988" cy="0.656" r="1.746" gradientTransform="translate(0.211) scale(0.577 1)" xlink:href="#radial-gradient"/>
    <linearGradient id="linear-gradient-12" x1="0.101" y1="0.5" x2="1.101" y2="0.5" xlink:href="#linear-gradient"/>
    <radialGradient id="radial-gradient-10" cx="0.923" cy="0.779" r="1.227" gradientTransform="translate(0.133) scale(0.734 1)" xlink:href="#radial-gradient"/>
    <radialGradient id="radial-gradient-11" cx="0.5" cy="0.5" r="0.452" gradientTransform="translate(-0.127) scale(1.255 1)" xlink:href="#radial-gradient"/>
  </defs>
  <g id="vector-apis" transform="translate(-1096.34 -339.092)">
    <path id="Trazado_12442" data-name="Trazado 12442" d="M1475.8,386.754a9.615,9.615,0,0,0-1.54,1.128c-.213-6.928-5.217-9.683-11.375-6.128-5.015,2.9-9.264,9.1-10.787,15.171a6.81,6.81,0,0,0-4.255,1.057c-4.489,2.592-8.129,8.9-8.129,14.08s3.64,7.284,8.129,4.692l27.957-16.14a13.268,13.268,0,0,0,6-10.4C1481.8,386.391,1479.117,384.84,1475.8,386.754Z" fill="url(#linear-gradient)"/>
    <g id="Grupo_6548" data-name="Grupo 6548">
      <path id="Trazado_12443" data-name="Trazado 12443" d="M1487.079,425.992a1.354,1.354,0,0,1-.634-.156,1.369,1.369,0,0,1-.579-1.848,15.385,15.385,0,0,1,5.6-6.156,7.163,7.163,0,0,1,3.943-1.091c1.783.108,3.966-1.24,5.885-3.551a13.324,13.324,0,0,1,3.559-3.086,7.133,7.133,0,0,1,3.945-1.091c1.765.092,3.962-1.24,5.882-3.552a13.4,13.4,0,0,1,3.56-3.087,7.152,7.152,0,0,1,3.942-1.091c1.8.1,3.966-1.24,5.885-3.551a13.326,13.326,0,0,1,3.56-3.086,6.265,6.265,0,0,1,5.641-.7,1.37,1.37,0,1,1-1.092,2.513,3.674,3.674,0,0,0-3.179.562,10.789,10.789,0,0,0-2.822,2.463c-2.5,3.015-5.45,4.665-8.128,4.538a4.606,4.606,0,0,0-2.438.727,10.8,10.8,0,0,0-2.82,2.464c-2.505,3.017-5.454,4.677-8.129,4.538a4.634,4.634,0,0,0-2.438.728,10.8,10.8,0,0,0-2.82,2.463c-2.5,3.016-5.45,4.672-8.129,4.538a4.587,4.587,0,0,0-2.437.727,12.616,12.616,0,0,0-4.538,5.052A1.37,1.37,0,0,1,1487.079,425.992Z" fill="url(#linear-gradient-2)"/>
    </g>
    <g id="Grupo_6549" data-name="Grupo 6549">
      <path id="Trazado_12444" data-name="Trazado 12444" d="M1097.709,684.2a1.353,1.353,0,0,1-.634-.156,1.37,1.37,0,0,1-.579-1.849,15.4,15.4,0,0,1,5.6-6.155,7.139,7.139,0,0,1,3.945-1.091c1.746.094,3.963-1.24,5.883-3.551a13.325,13.325,0,0,1,3.559-3.086,7.149,7.149,0,0,1,3.944-1.091c1.755.085,3.963-1.24,5.883-3.552a13.4,13.4,0,0,1,3.56-3.087,7.115,7.115,0,0,1,3.942-1.091c1.8.09,3.966-1.239,5.885-3.551a13.327,13.327,0,0,1,3.56-3.086,6.263,6.263,0,0,1,5.641-.7,1.37,1.37,0,0,1-1.092,2.514,3.669,3.669,0,0,0-3.179.562,10.774,10.774,0,0,0-2.822,2.463c-2.5,3.016-5.454,4.669-8.129,4.538a4.58,4.58,0,0,0-2.437.727,10.8,10.8,0,0,0-2.82,2.464c-2.505,3.016-5.448,4.665-8.129,4.538a4.569,4.569,0,0,0-2.438.728,10.8,10.8,0,0,0-2.82,2.463c-2.5,3.016-5.454,4.674-8.129,4.538a4.608,4.608,0,0,0-2.437.727,12.625,12.625,0,0,0-4.539,5.052A1.367,1.367,0,0,1,1097.709,684.2Z" fill="url(#linear-gradient-2)"/>
    </g>
    <g id="Grupo_6550" data-name="Grupo 6550">
      <path id="Trazado_12445" data-name="Trazado 12445" d="M1309.27,683.3a5.828,5.828,0,0,1-2.636,4.566c-1.456.84-2.636.159-2.636-1.522a5.827,5.827,0,0,1,2.636-4.566C1308.09,680.939,1309.27,681.62,1309.27,683.3Z" fill="#7dc3ea"/>
      <path id="Trazado_12446" data-name="Trazado 12446" d="M1317.814,678.368a5.827,5.827,0,0,1-2.636,4.566c-1.456.84-2.636.159-2.636-1.522a5.824,5.824,0,0,1,2.636-4.565C1316.634,676.006,1317.814,676.687,1317.814,678.368Z" fill="#7dc3ea"/>
      <path id="Trazado_12447" data-name="Trazado 12447" d="M1326.358,673.435a5.827,5.827,0,0,1-2.636,4.566c-1.456.84-2.636.159-2.636-1.522a5.824,5.824,0,0,1,2.636-4.565C1325.178,671.073,1326.358,671.754,1326.358,673.435Z" fill="#7dc3ea"/>
      <path id="Trazado_12448" data-name="Trazado 12448" d="M1334.9,668.5a5.827,5.827,0,0,1-2.636,4.566c-1.456.84-2.636.159-2.636-1.522a5.824,5.824,0,0,1,2.636-4.565C1333.722,666.14,1334.9,666.822,1334.9,668.5Z" fill="#7dc3ea"/>
    </g>
    <g id="Grupo_6551" data-name="Grupo 6551">
      <path id="Trazado_12449" data-name="Trazado 12449" d="M1256.269,458.417a5.827,5.827,0,0,1-2.636,4.565c-1.456.841-2.636.16-2.636-1.521a5.827,5.827,0,0,1,2.636-4.566C1255.088,456.055,1256.269,456.736,1256.269,458.417Z" fill="url(#linear-gradient-4)"/>
      <path id="Trazado_12450" data-name="Trazado 12450" d="M1263.54,454.219a5.824,5.824,0,0,1-2.636,4.565c-1.456.841-2.636.159-2.636-1.522a5.824,5.824,0,0,1,2.636-4.565C1262.36,451.856,1263.54,452.538,1263.54,454.219Z" fill="url(#linear-gradient-5)"/>
      <path id="Trazado_12451" data-name="Trazado 12451" d="M1256.269,450.021a5.827,5.827,0,0,1-2.636,4.565c-1.456.841-2.636.159-2.636-1.522a5.826,5.826,0,0,1,2.636-4.565C1255.088,447.659,1256.269,448.34,1256.269,450.021Z" fill="url(#linear-gradient-4)"/>
      <path id="Trazado_12452" data-name="Trazado 12452" d="M1263.54,445.823a5.826,5.826,0,0,1-2.636,4.565c-1.456.841-2.636.159-2.636-1.522a5.824,5.824,0,0,1,2.636-4.565C1262.36,443.46,1263.54,444.142,1263.54,445.823Z" fill="url(#linear-gradient-5)"/>
    </g>
    <g id="Grupo_6552" data-name="Grupo 6552">
      <path id="Trazado_12453" data-name="Trazado 12453" d="M1490.867,508.641l-5.272,3.044V505.6l5.272-3.044Z" fill="url(#radial-gradient)"/>
      <path id="Trazado_12454" data-name="Trazado 12454" d="M1499.411,503.708l-5.272,3.044v-6.087l5.272-3.044Z" fill="url(#radial-gradient-2)"/>
      <path id="Trazado_12455" data-name="Trazado 12455" d="M1507.955,498.775l-5.272,3.044v-6.087l5.272-3.044Z" fill="url(#radial-gradient-3)"/>
      <path id="Trazado_12456" data-name="Trazado 12456" d="M1516.5,493.843l-5.272,3.044V490.8l5.272-3.044Z" fill="url(#radial-gradient-4)"/>
    </g>
    <path id="Trazado_12457" data-name="Trazado 12457" d="M1237.215,497.406a10.1,10.1,0,0,0-2.575,2.213c-.121-5.077-3.764-7.1-8.251-4.515a15.011,15.011,0,0,0-3.965,3.46c-2-3.491-6.135-4.3-10.93-1.533-6.743,3.893-12.209,13.361-12.209,21.146a14.588,14.588,0,0,0,.122,1.821,4.6,4.6,0,0,0-3.419.69,12.91,12.91,0,0,0-5.841,10.118c0,3.725,2.615,5.235,5.841,3.372l41.227-23.8a12.413,12.413,0,0,0,5.616-9.727C1242.831,497.067,1240.317,495.615,1237.215,497.406Z" fill="#7dc3ea"/>
    <path id="Trazado_12458" data-name="Trazado 12458" d="M1212.093,637.642a10.678,10.678,0,0,0-2.727,2.343c-.128-5.376-3.985-7.524-8.736-4.781a15.88,15.88,0,0,0-4.2,3.663c-2.115-3.7-6.5-4.554-11.573-1.623-7.14,4.122-12.928,14.147-12.928,22.392a15.476,15.476,0,0,0,.129,1.927,4.874,4.874,0,0,0-3.62.731,13.673,13.673,0,0,0-6.186,10.714c0,3.944,2.77,5.543,6.186,3.571l43.654-25.2a13.146,13.146,0,0,0,5.947-10.3C1218.04,637.283,1215.377,635.745,1212.093,637.642Z" fill="#fff" opacity="0.4"/>
    <g id="Grupo_6568" data-name="Grupo 6568">
      <g id="Grupo_6556" data-name="Grupo 6556">
        <path id="Trazado_12459" data-name="Trazado 12459" d="M1343.67,457.578a.641.641,0,0,1-.641-.641V420.413a.641.641,0,0,1,1.283,0v36.524A.641.641,0,0,1,1343.67,457.578Z" fill="#396caa"/>
        <g id="Grupo_6555" data-name="Grupo 6555">
          <g id="Grupo_6553" data-name="Grupo 6553">
            <rect id="Rectángulo_1703" data-name="Rectángulo 1703" width="6.345" height="13.693" transform="translate(1340.498 418.116)" fill="#5793ce"/>
            <path id="Trazado_12460" data-name="Trazado 12460" d="M1345.914,433.1a4.955,4.955,0,0,1-4.487,0,1.367,1.367,0,0,1,0-2.59,4.955,4.955,0,0,1,4.487,0A1.367,1.367,0,0,1,1345.914,433.1Z" fill="#5793ce"/>
          </g>
          <g id="Grupo_6554" data-name="Grupo 6554">
            <rect id="Rectángulo_1704" data-name="Rectángulo 1704" width="10.282" height="21.476" transform="translate(1338.53 399.032)" fill="#5793ce"/>
            <path id="Trazado_12461" data-name="Trazado 12461" d="M1340.5,420.369V425a8.213,8.213,0,0,0,6.345,0v-4.634A8.2,8.2,0,0,0,1340.5,420.369Z" fill="#396caa"/>
            <path id="Trazado_12462" data-name="Trazado 12462" d="M1347.306,422.607a8.037,8.037,0,0,1-7.271,0c-2.007-1.159-2.007-3.038,0-4.2a8.037,8.037,0,0,1,7.271,0C1349.314,419.569,1349.314,421.448,1347.306,422.607Z" fill="#5793ce"/>
          </g>
        </g>
      </g>
      <g id="Grupo_6560" data-name="Grupo 6560">
        <path id="Trazado_12463" data-name="Trazado 12463" d="M1379.289,477.619a.641.641,0,0,1-.642-.641V440.454a.642.642,0,0,1,1.283,0v36.524A.641.641,0,0,1,1379.289,477.619Z" fill="#396caa"/>
        <g id="Grupo_6559" data-name="Grupo 6559">
          <g id="Grupo_6557" data-name="Grupo 6557">
            <rect id="Rectángulo_1705" data-name="Rectángulo 1705" width="6.345" height="13.693" transform="translate(1376.116 438.158)" fill="#5793ce"/>
            <path id="Trazado_12464" data-name="Trazado 12464" d="M1381.532,453.146a4.961,4.961,0,0,1-4.487,0,1.368,1.368,0,0,1,0-2.591,4.961,4.961,0,0,1,4.487,0A1.368,1.368,0,0,1,1381.532,453.146Z" fill="#5793ce"/>
          </g>
          <g id="Grupo_6558" data-name="Grupo 6558">
            <rect id="Rectángulo_1706" data-name="Rectángulo 1706" width="10.282" height="21.476" transform="translate(1374.148 419.074)" fill="#5793ce"/>
            <path id="Trazado_12465" data-name="Trazado 12465" d="M1376.116,440.41v4.634a8.209,8.209,0,0,0,6.345,0V440.41A8.213,8.213,0,0,0,1376.116,440.41Z" fill="#396caa"/>
            <path id="Trazado_12466" data-name="Trazado 12466" d="M1382.924,442.649a8.034,8.034,0,0,1-7.271,0c-2.007-1.159-2.007-3.038,0-4.2a8.037,8.037,0,0,1,7.271,0C1384.932,439.61,1384.932,441.489,1382.924,442.649Z" fill="#5793ce"/>
          </g>
        </g>
      </g>
      <g id="Grupo_6567" data-name="Grupo 6567">
        <g id="Grupo_6563" data-name="Grupo 6563">
          <path id="Trazado_12467" data-name="Trazado 12467" d="M1413.911,454.708l13.787-8.12-13.13-16.387-3.452,5.639Z" fill="#5793ce"/>
          <path id="Trazado_12468" data-name="Trazado 12468" d="M1313.807,364.77l22-12.659s-.827,12.633-.827,12.659-12.641,3.915-12.641,3.915Z" fill="#5793ce"/>
          <path id="Trazado_12469" data-name="Trazado 12469" d="M1417.743,413.5a13.849,13.849,0,0,0-4.761-1.764c-2.218-11.659-10.331-24.04-20-29.625a19.582,19.582,0,0,0-8.186-2.771c-1.321-14.131-11.147-30.191-23.078-37.08-6.233-3.6-11.888-4.024-16.061-1.821v-.01l-.2.116c-.107.059-.212.12-.317.183l-12.974,7.662,4.311,3.406c-3.871,1.691-6.316,6.031-6.316,12.447,0,11.832,8.306,26.219,18.553,32.135l69.035,49.3c7.694,4.442,13.932.841,13.932-8.043S1425.437,417.943,1417.743,413.5Z" fill="#5793ce"/>
          <path id="Trazado_12470" data-name="Trazado 12470" d="M1330.8,359.034l29.779-17.4c-5.781-3.015-11-3.264-14.921-1.2v-.01l-.2.116c-.107.059-.212.12-.317.183l-12.974,7.662,4.311,3.406C1333.765,352.978,1331.76,355.458,1330.8,359.034Z" fill="#5793ce"/>
          <path id="Trazado_12471" data-name="Trazado 12471" d="M1385.789,410.218l21.728-12.75c-3.726-6.446-8.858-12.077-14.539-15.357q-1.128-.651-2.225-1.145l-27.637,16.162Z" fill="#5793ce"/>
          <path id="Trazado_12472" data-name="Trazado 12472" d="M1338.282,349.814l9.683,5.59L1365.7,344.96a35.223,35.223,0,0,0-3.983-2.7,24.893,24.893,0,0,0-6.2-2.6Z" fill="#d4ecff"/>
          <path id="Trazado_12473" data-name="Trazado 12473" d="M1405.121,393.716l-17.342,10.218,6.032,6.728,15.743-9.3A50.487,50.487,0,0,0,1405.121,393.716Z" fill="#d4ecff"/>
          <path id="Trazado_12474" data-name="Trazado 12474" d="M1404.121,421.524a13.848,13.848,0,0,0-4.761-1.764c-2.218-11.659-10.331-24.04-20-29.625a19.576,19.576,0,0,0-8.186-2.771c-1.321-14.131-11.146-30.191-23.078-37.08-12.832-7.409-23.235-1.4-23.235,13.414,0,.5.014,1.009.038,1.519-9.384-4.352-16.715.551-16.715,11.666,0,11.832,8.306,26.219,18.553,32.135l77.388,44.68c7.694,4.442,13.932.841,13.932-8.043S1411.815,425.967,1404.121,421.524Z" fill="#d4ecff"/>
          <g id="Grupo_6561" data-name="Grupo 6561">
            <path id="Trazado_12475" data-name="Trazado 12475" d="M1324.9,365.217c-.024-.51-.038-1.017-.038-1.519,0-.022,0-.042,0-.063-5.185-2.016-9.639-1.138-12.435,2.1C1315.461,363.231,1319.878,362.89,1324.9,365.217Z" fill="#fff"/>
            <path id="Trazado_12476" data-name="Trazado 12476" d="M1405.254,420.42a13.849,13.849,0,0,0-4.761-1.764c-2.218-11.659-10.331-24.041-20-29.625a19.578,19.578,0,0,0-8.186-2.771c-1.321-14.131-11.147-30.191-23.078-37.08-7.995-4.616-15.045-4.023-19.226.661,4.259-3.639,10.78-3.779,18.093.443,11.932,6.889,21.757,22.949,23.078,37.08a19.576,19.576,0,0,1,8.186,2.771c9.673,5.585,17.786,17.966,20,29.625a13.831,13.831,0,0,1,4.761,1.765c7.694,4.442,13.932,15.245,13.932,24.13a11.476,11.476,0,0,1-2.222,7.411c2.087-1.608,3.355-4.522,3.355-8.516C1419.186,435.666,1412.948,424.862,1405.254,420.42Z" fill="#fff"/>
          </g>
          <g id="Grupo_6562" data-name="Grupo 6562">
            <path id="Trazado_12477" data-name="Trazado 12477" d="M1323.259,368.745l5.817,2.7-.3-6.4c-.021-.45-.034-.9-.034-1.34,0-5.718,1.727-9.863,4.861-11.674s7.589-1.23,12.54,1.628c10.649,6.149,19.939,21.116,21.15,34.074l.306,3.265,3.269.252a15.721,15.721,0,0,1,6.539,2.26c8.459,4.884,16.083,16.232,18.128,26.984l.512,2.691,2.707.424a10.049,10.049,0,0,1,3.418,1.291c6.5,3.752,11.987,13.259,11.987,20.761,0,2.808-.778,4.868-2.136,5.652s-3.529.428-5.961-.976l-77.388-44.68c-9-5.2-16.609-18.371-16.609-28.767,0-4.079,1.2-7.187,3.3-8.527a5.654,5.654,0,0,1,3.084-.825A11.638,11.638,0,0,1,1323.259,368.745Z" fill="url(#linear-gradient-2)"/>
          </g>
        </g>
        <g id="Grupo_6566" data-name="Grupo 6566">
          <path id="Trazado_12478" data-name="Trazado 12478" d="M1361.882,417.247l2.041-1.025-2.01-1.522Z" fill="#5793ce"/>
          <path id="Trazado_12479" data-name="Trazado 12479" d="M1355.751,389.67l1.982-1,.036,1.038Z" fill="#5793ce"/>
          <path id="Trazado_12480" data-name="Trazado 12480" d="M1367.706,410.8l2.068-1.04-3.981-3.786Z" fill="#5793ce"/>
          <g id="Grupo_6564" data-name="Grupo 6564">
            <path id="Trazado_12481" data-name="Trazado 12481" d="M1363.326,416.157l-9.665-5.692a2.059,2.059,0,0,1-.885-1.626l.032-11.189,11.441,6.739-.031,11.189C1364.216,416.187,1363.817,416.446,1363.326,416.157Z" fill="#5793ce"/>
            <path id="Trazado_12482" data-name="Trazado 12482" d="M1357.712,388.681l-10.439,6.717c-.443.285-.085,1.347.587,1.744l10.662,6.279,10.661,6.279c.673.4,1.036-.242.6-1.047l-10.367-18.971C1358.965,388.863,1358.163,388.39,1357.712,388.681Z" fill="#5793ce"/>
          </g>
          <g id="Grupo_6565" data-name="Grupo 6565">
            <path id="Trazado_12483" data-name="Trazado 12483" d="M1361.253,417.2l-9.665-5.693a2.06,2.06,0,0,1-.885-1.625l.032-11.19,11.442,6.739-.032,11.19C1362.143,417.23,1361.744,417.49,1361.253,417.2Z" fill="#d4ecff"/>
            <path id="Trazado_12484" data-name="Trazado 12484" d="M1355.639,389.724l-10.439,6.717c-.443.286-.085,1.348.588,1.744l10.661,6.279,10.661,6.28c.673.4,1.036-.242.6-1.047l-10.366-18.971C1356.892,389.907,1356.09,389.434,1355.639,389.724Z" fill="#d4ecff"/>
          </g>
        </g>
      </g>
      <path id="Trazado_12485" data-name="Trazado 12485" d="M1342.7,429.435c0,.63-.443.885-.988.571a2.183,2.183,0,0,1-.988-1.711c0-.63.442-.885.988-.57A2.185,2.185,0,0,1,1342.7,429.435Z" fill="#d4ecff"/>
      <path id="Trazado_12486" data-name="Trazado 12486" d="M1378.4,449.768c0,.63-.443.886-.988.571a2.185,2.185,0,0,1-.988-1.711c0-.63.443-.885.988-.57A2.185,2.185,0,0,1,1378.4,449.768Z" fill="#d4ecff"/>
    </g>
    <g id="Grupo_6573" data-name="Grupo 6573">
      <path id="Trazado_12487" data-name="Trazado 12487" d="M1294.019,666.758l-111.059-64.12c-3.141-1.814-2.747-4.982.88-7.077l75.623-43.646c3.628-2.094,9.116-2.322,12.257-.508l111.059,64.12c3.142,1.814,2.748,4.982-.88,7.076l-75.623,43.647C1302.649,668.344,1297.161,668.571,1294.019,666.758Z" fill="#7dc3ea"/>
      <path id="Trazado_12488" data-name="Trazado 12488" d="M1299.356,657.024a12.149,12.149,0,0,1-5.987-1.4L1182.31,591.5a4.9,4.9,0,0,1-2.771-4.2c0-1.92,1.331-3.79,3.651-5.13l75.623-43.646c4.048-2.337,10-2.561,13.558-.508l111.058,64.12a4.9,4.9,0,0,1,2.772,4.2c0,1.92-1.33,3.79-3.652,5.13l-75.623,43.647A15.489,15.489,0,0,1,1299.356,657.024Zm-32.942-117.8a13.012,13.012,0,0,0-6.3,1.554l-75.623,43.646c-1.472.85-2.35,1.925-2.35,2.876a2.5,2.5,0,0,0,1.47,1.947l111.059,64.119c2.732,1.579,7.748,1.346,10.956-.507l75.623-43.647c1.471-.849,2.349-1.925,2.349-2.876a2.5,2.5,0,0,0-1.47-1.946l-111.058-64.12A9.544,9.544,0,0,0,1266.414,539.223Z" fill="#fff"/>
      <g id="Grupo_6572" data-name="Grupo 6572">
        <path id="Trazado_12489" data-name="Trazado 12489" d="M1410.324,480.935l-111.058-64.12a4.483,4.483,0,0,0-3.764-.462l.007-.011-.2.076-.049.019-4.013,1.535,3.6,1.764c-.016.067-.037.128-.052.2l-19.623,89.241c-.905,4.12.908,8.931,4.049,10.745L1387.609,582.5l-.387,4.593,4.387-1.7a6.16,6.16,0,0,0,3.141-4.468l19.624-89.241C1415.279,487.56,1413.466,482.748,1410.324,480.935Z" fill="#173d7a"/>
        <path id="Trazado_12490" data-name="Trazado 12490" d="M1410.324,480.935l-111.058-64.12a4.483,4.483,0,0,0-3.764-.462l.007-.011-.2.076-.049.019-4.013,1.535,3.6,1.764c-.016.067-.037.128-.052.2L1281.339,481.1l54.34,42.335,78.153-38.074A8.615,8.615,0,0,0,1410.324,480.935Z" fill="#396caa"/>
        <path id="Trazado_12491" data-name="Trazado 12491" d="M1406.137,493.592l8.454-3.6a10.592,10.592,0,0,0-3.425-8.466l-13.382,5.63Z" fill="#274f89"/>
        <path id="Trazado_12492" data-name="Trazado 12492" d="M1383.364,586.653l-111.059-64.12c-3.141-1.814-4.954-6.625-4.049-10.746l19.623-89.24c.906-4.121,4.186-5.991,7.328-4.178l111.059,64.12c3.142,1.814,4.954,6.625,4.049,10.746l-19.623,89.24C1389.787,586.6,1386.506,588.466,1383.364,586.653Z" fill="url(#radial-gradient-5)"/>
        <path id="Trazado_12493" data-name="Trazado 12493" d="M1407.332,482.1,1296.273,417.98a4.388,4.388,0,0,0-4.372-.191,4.563,4.563,0,0,1,3.306.581l111.059,64.119c3.142,1.814,4.955,6.625,4.049,10.746l-19.623,89.24a6.256,6.256,0,0,1-2.955,4.367c1.875-.41,3.44-2.11,4.021-4.757l19.624-89.24C1412.287,488.724,1410.474,483.913,1407.332,482.1Z" fill="#fff"/>
        <path id="Trazado_12494" data-name="Trazado 12494" d="M1380.957,580.528l-104.449-60.274c-2.875-1.66-4.534-6.063-3.705-9.833l18.087-82.249c.828-3.771,3.83-5.482,6.7-3.822l104.449,60.274c2.875,1.66,4.534,6.062,3.705,9.833l-18.087,82.248C1386.834,580.476,1383.832,582.187,1380.957,580.528Z" fill="#fff"/>
        <path id="Trazado_12495" data-name="Trazado 12495" d="M1380.957,580.528l-104.449-60.274c-2.875-1.66-4.534-6.063-3.705-9.833l18.087-82.249c.828-3.771,3.83-5.482,6.7-3.822l104.449,60.274c2.875,1.66,4.534,6.062,3.705,9.833l-18.087,82.248C1386.834,580.476,1383.832,582.187,1380.957,580.528Z" fill="url(#radial-gradient-6)"/>
        <path id="Trazado_12496" data-name="Trazado 12496" d="M1381.867,580.157l-104.449-60.274c-2.874-1.659-4.533-6.062-3.7-9.833L1291.8,427.8a5.78,5.78,0,0,1,2.632-3.967c-1.656.426-3.024,1.979-3.542,4.337L1272.8,510.42c-.829,3.771.83,8.174,3.705,9.834l104.449,60.274a4.014,4.014,0,0,0,4.073.144A4.164,4.164,0,0,1,1381.867,580.157Z" fill="#5793ce"/>
        <path id="Trazado_12497" data-name="Trazado 12497" d="M1384.9,589.445l-15.18-2-98-56.579c-3.141-1.814-8.629-1.586-12.257.508l-69.439,40.077-9.18-1.212v5.208h.009a3.575,3.575,0,0,0,2.107,3.218l111.059,64.119c3.142,1.814,8.63,1.587,12.257-.508l75.623-43.646c2.041-1.178,3.058-2.7,3-4.122h0Z" fill="#173d7a"/>
        <path id="Trazado_12498" data-name="Trazado 12498" d="M1311.267,553.694l-6.963-4.019h-76.545l-37.735,21.772-9.18-1.212v5.208h.009a3.575,3.575,0,0,0,2.107,3.218l111.059,64.119a11.486,11.486,0,0,0,6.326,1.186Z" fill="#396caa"/>
        <path id="Trazado_12499" data-name="Trazado 12499" d="M1184.918,570.773l-4.074-.538v5.208h.009a3.575,3.575,0,0,0,2.107,3.218l1.958,1.13Z" fill="#5793ce"/>
        <path id="Trazado_12500" data-name="Trazado 12500" d="M1295.138,643.3a14.221,14.221,0,0,0,10.414-.647V631.037h-10.414Z" fill="#274f89"/>
        <path id="Trazado_12501" data-name="Trazado 12501" d="M1294.019,637.579l-111.059-64.12c-3.141-1.814-2.747-4.982.88-7.076l75.623-43.646c3.628-2.095,9.116-2.322,12.257-.509l111.059,64.12c3.142,1.814,2.748,4.982-.88,7.077l-75.623,43.646C1302.649,639.165,1297.161,639.393,1294.019,637.579Z" fill="url(#radial-gradient-7)"/>
        <path id="Trazado_12502" data-name="Trazado 12502" d="M1381.9,591.522l-75.623,43.647c-3.627,2.094-9.115,2.322-12.257.508l-111.059-64.12a4.139,4.139,0,0,1-1.953-2.136c-.491,1.486.135,2.988,1.953,4.039l111.059,64.119c3.142,1.814,8.63,1.587,12.257-.508l75.623-43.646c2.438-1.408,3.408-3.3,2.833-4.941A5.9,5.9,0,0,1,1381.9,591.522Z" fill="#fff"/>
        <g id="Grupo_6569" data-name="Grupo 6569">
          <path id="Trazado_12503" data-name="Trazado 12503" d="M1230.195,552.232l-5.025-2.9c-.4-.233-.353-.64.113-.909l5.931-3.424a1.751,1.751,0,0,1,1.575-.066l5.025,2.9c.4.232.352.639-.113.908l-5.932,3.425A1.749,1.749,0,0,1,1230.195,552.232Z" fill="#5793ce"/>
          <path id="Trazado_12504" data-name="Trazado 12504" d="M1237.955,556.712l-5.025-2.9c-.4-.233-.353-.64.113-.909l5.932-3.424a1.749,1.749,0,0,1,1.574-.065l5.025,2.9c.4.233.352.64-.113.909l-5.932,3.424A1.749,1.749,0,0,1,1237.955,556.712Z" fill="#5793ce"/>
          <path id="Trazado_12505" data-name="Trazado 12505" d="M1245.715,561.192l-5.025-2.9c-.4-.233-.352-.64.113-.908l5.932-3.425a1.749,1.749,0,0,1,1.574-.065l5.025,2.9c.4.233.352.64-.113.909l-5.932,3.424A1.749,1.749,0,0,1,1245.715,561.192Z" fill="#5793ce"/>
          <path id="Trazado_12506" data-name="Trazado 12506" d="M1256.448,557.492l-5.025-2.9c-.4-.233-.353-.639.113-.908l4.979-2.875a1.749,1.749,0,0,1,1.574-.065l5.025,2.9c.4.233.353.64-.113.909l-4.979,2.874A1.749,1.749,0,0,1,1256.448,557.492Z" fill="#5793ce"/>
          <path id="Trazado_12507" data-name="Trazado 12507" d="M1264.208,561.973l-5.025-2.9c-.4-.233-.353-.64.113-.909l4.979-2.875a1.749,1.749,0,0,1,1.574-.065l5.025,2.9c.4.233.353.64-.113.909l-4.979,2.875A1.752,1.752,0,0,1,1264.208,561.973Z" fill="#5793ce"/>
          <path id="Trazado_12508" data-name="Trazado 12508" d="M1271.968,566.453l-5.025-2.9c-.4-.233-.353-.64.113-.909l4.979-2.874a1.749,1.749,0,0,1,1.574-.066l5.025,2.9c.4.233.353.64-.113.909l-4.979,2.875A1.749,1.749,0,0,1,1271.968,566.453Z" fill="#5793ce"/>
          <path id="Trazado_12509" data-name="Trazado 12509" d="M1279.728,570.933l-5.025-2.9c-.4-.233-.353-.64.113-.909l4.979-2.874a1.749,1.749,0,0,1,1.574-.065l5.025,2.9c.4.233.353.639-.113.908l-4.979,2.875A1.749,1.749,0,0,1,1279.728,570.933Z" fill="#5793ce"/>
          <path id="Trazado_12510" data-name="Trazado 12510" d="M1287.488,575.414l-5.025-2.9c-.4-.233-.353-.639.113-.908l4.979-2.875a1.749,1.749,0,0,1,1.574-.065l5.025,2.9c.4.233.353.64-.113.909l-4.979,2.874A1.752,1.752,0,0,1,1287.488,575.414Z" fill="#5793ce"/>
          <path id="Trazado_12511" data-name="Trazado 12511" d="M1295.248,579.894l-5.025-2.9c-.4-.233-.353-.64.113-.909l4.979-2.875a1.749,1.749,0,0,1,1.574-.065l5.025,2.9c.4.233.353.64-.113.909l-4.979,2.875A1.749,1.749,0,0,1,1295.248,579.894Z" fill="#5793ce"/>
          <path id="Trazado_12512" data-name="Trazado 12512" d="M1303.008,584.374l-5.025-2.9c-.4-.233-.353-.64.113-.909l4.979-2.874a1.749,1.749,0,0,1,1.574-.066l5.025,2.9c.4.233.353.64-.113.909l-4.979,2.875A1.749,1.749,0,0,1,1303.008,584.374Z" fill="#5793ce"/>
          <path id="Trazado_12513" data-name="Trazado 12513" d="M1310.768,588.854l-5.025-2.9c-.4-.233-.353-.64.113-.909l4.979-2.874a1.749,1.749,0,0,1,1.574-.065l5.025,2.9c.4.233.353.64-.113.909l-4.979,2.874A1.749,1.749,0,0,1,1310.768,588.854Z" fill="#5793ce"/>
          <path id="Trazado_12514" data-name="Trazado 12514" d="M1318.528,593.335l-5.025-2.9c-.4-.232-.353-.639.113-.908l4.979-2.875a1.749,1.749,0,0,1,1.574-.065l5.025,2.9c.4.233.353.64-.113.909l-4.979,2.874A1.749,1.749,0,0,1,1318.528,593.335Z" fill="#5793ce"/>
          <path id="Trazado_12515" data-name="Trazado 12515" d="M1326.288,597.815l-5.025-2.9c-.4-.233-.352-.64.113-.909l4.979-2.875a1.749,1.749,0,0,1,1.574-.065l5.025,2.9c.4.233.353.64-.113.909l-4.979,2.875A1.749,1.749,0,0,1,1326.288,597.815Z" fill="#5793ce"/>
          <path id="Trazado_12516" data-name="Trazado 12516" d="M1267.882,555.371l-5.025-2.9c-.4-.233-.353-.64.113-.909l4.979-2.874a1.749,1.749,0,0,1,1.574-.065l5.025,2.9c.4.233.353.64-.113.909l-4.979,2.874A1.749,1.749,0,0,1,1267.882,555.371Z" fill="#5793ce"/>
          <path id="Trazado_12517" data-name="Trazado 12517" d="M1260.006,550.824l-5.025-2.9c-.4-.233-.353-.64.113-.909l4.979-2.874a1.752,1.752,0,0,1,1.574-.066l5.025,2.9c.4.233.353.639-.113.908l-4.979,2.875A1.749,1.749,0,0,1,1260.006,550.824Z" fill="#5793ce"/>
          <path id="Trazado_12518" data-name="Trazado 12518" d="M1252.117,546.27l-10.822-6.249c-.4-.233-.353-.64.113-.908l4.979-2.875a1.749,1.749,0,0,1,1.574-.065l10.822,6.248c.4.233.353.64-.113.909l-4.979,2.874A1.749,1.749,0,0,1,1252.117,546.27Z" fill="#5793ce"/>
          <path id="Trazado_12519" data-name="Trazado 12519" d="M1257.631,540.731l-8.782-5.071c-.4-.233-.353-.64.113-.909l4.979-2.874a1.749,1.749,0,0,1,1.574-.066l8.782,5.071c.4.233.353.64-.113.909l-4.979,2.875A1.752,1.752,0,0,1,1257.631,540.731Z" fill="#5793ce"/>
          <path id="Trazado_12520" data-name="Trazado 12520" d="M1275.642,559.852l-5.025-2.9c-.4-.232-.353-.639.113-.908l4.979-2.875a1.749,1.749,0,0,1,1.574-.065l5.025,2.9c.4.233.353.64-.113.909l-4.979,2.874A1.749,1.749,0,0,1,1275.642,559.852Z" fill="#5793ce"/>
          <path id="Trazado_12521" data-name="Trazado 12521" d="M1283.4,564.332l-5.025-2.9c-.4-.233-.353-.64.113-.909l4.979-2.875a1.749,1.749,0,0,1,1.574-.065l5.025,2.9c.4.233.353.64-.113.909l-4.979,2.875A1.749,1.749,0,0,1,1283.4,564.332Z" fill="#5793ce"/>
          <path id="Trazado_12522" data-name="Trazado 12522" d="M1291.162,568.812l-5.025-2.9c-.4-.233-.353-.64.113-.909l4.979-2.874a1.749,1.749,0,0,1,1.574-.066l5.025,2.9c.4.232.353.639-.113.908l-4.979,2.875A1.749,1.749,0,0,1,1291.162,568.812Z" fill="#5793ce"/>
          <path id="Trazado_12523" data-name="Trazado 12523" d="M1298.922,573.292l-5.025-2.9c-.4-.233-.353-.64.113-.909l4.979-2.874a1.749,1.749,0,0,1,1.574-.065l5.025,2.9c.4.233.353.64-.113.909l-4.979,2.874A1.749,1.749,0,0,1,1298.922,573.292Z" fill="#5793ce"/>
          <path id="Trazado_12524" data-name="Trazado 12524" d="M1306.682,577.773l-5.025-2.9c-.4-.233-.353-.64.113-.909l4.979-2.875a1.749,1.749,0,0,1,1.574-.065l5.025,2.9c.4.233.353.64-.113.909l-4.979,2.874A1.749,1.749,0,0,1,1306.682,577.773Z" fill="#5793ce"/>
          <path id="Trazado_12525" data-name="Trazado 12525" d="M1314.442,582.253l-5.025-2.9c-.4-.233-.353-.64.113-.909l4.979-2.875a1.749,1.749,0,0,1,1.574-.065l5.025,2.9c.4.233.353.64-.113.909l-4.979,2.875A1.749,1.749,0,0,1,1314.442,582.253Z" fill="#5793ce"/>
          <path id="Trazado_12526" data-name="Trazado 12526" d="M1322.2,586.733l-5.025-2.9c-.4-.233-.353-.64.113-.909l4.979-2.874a1.752,1.752,0,0,1,1.574-.066l5.025,2.9c.4.233.353.639-.113.908l-4.979,2.875A1.749,1.749,0,0,1,1322.2,586.733Z" fill="#5793ce"/>
          <path id="Trazado_12527" data-name="Trazado 12527" d="M1329.962,591.213l-5.025-2.9c-.4-.233-.353-.639.113-.908l4.979-2.875a1.749,1.749,0,0,1,1.574-.065l5.025,2.9c.4.233.353.64-.113.909l-4.979,2.874A1.749,1.749,0,0,1,1329.962,591.213Z" fill="#5793ce"/>
          <path id="Trazado_12528" data-name="Trazado 12528" d="M1337.722,595.694l-5.025-2.9c-.4-.233-.353-.64.113-.909l4.979-2.875a1.749,1.749,0,0,1,1.574-.065l5.025,2.9c.4.233.353.64-.113.909l-4.979,2.875A1.752,1.752,0,0,1,1337.722,595.694Z" fill="#5793ce"/>
          <path id="Trazado_12529" data-name="Trazado 12529" d="M1351.518,603.659l-10.964-6.33c-.4-.233-.353-.64.113-.909l4.979-2.875a1.749,1.749,0,0,1,1.574-.065l10.964,6.33c.4.233.353.64-.113.909l-4.979,2.874A1.749,1.749,0,0,1,1351.518,603.659Z" fill="#5793ce"/>
          <path id="Trazado_12530" data-name="Trazado 12530" d="M1366.626,594.936l-9.254-5.343c-.4-.233-.353-.639.113-.908l4.979-2.875a1.749,1.749,0,0,1,1.574-.065l9.254,5.343c.4.232.353.639-.113.908l-4.979,2.875A1.749,1.749,0,0,1,1366.626,594.936Z" fill="#5793ce"/>
          <path id="Trazado_12531" data-name="Trazado 12531" d="M1289.231,558.975l-5.025-2.9c-.4-.233-.352-.64.113-.909l4.979-2.874a1.749,1.749,0,0,1,1.574-.066l5.025,2.9c.4.233.353.64-.113.909l-4.979,2.875A1.749,1.749,0,0,1,1289.231,558.975Z" fill="#5793ce"/>
          <path id="Trazado_12532" data-name="Trazado 12532" d="M1281.278,554.383l-5.025-2.9c-.4-.233-.352-.64.113-.909l4.979-2.874a1.749,1.749,0,0,1,1.574-.065l5.025,2.9c.4.233.353.64-.113.908l-4.979,2.875A1.749,1.749,0,0,1,1281.278,554.383Z" fill="#5793ce"/>
          <path id="Trazado_12533" data-name="Trazado 12533" d="M1273.325,549.792l-5.025-2.9c-.4-.233-.353-.639.113-.908l4.979-2.875a1.749,1.749,0,0,1,1.574-.065l5.025,2.9c.4.233.353.64-.113.909l-4.979,2.874A1.749,1.749,0,0,1,1273.325,549.792Z" fill="#5793ce"/>
          <path id="Trazado_12534" data-name="Trazado 12534" d="M1265.372,545.2l-5.025-2.9c-.4-.233-.353-.64.113-.909l4.979-2.875a1.749,1.749,0,0,1,1.574-.065l5.025,2.9c.4.233.353.64-.113.909l-4.979,2.875A1.749,1.749,0,0,1,1265.372,545.2Z" fill="#5793ce"/>
          <path id="Trazado_12535" data-name="Trazado 12535" d="M1296.991,563.455l-5.024-2.9c-.4-.233-.353-.64.113-.909l4.978-2.874a1.749,1.749,0,0,1,1.574-.065l5.025,2.9c.4.233.353.639-.113.908l-4.978,2.875A1.751,1.751,0,0,1,1296.991,563.455Z" fill="#5793ce"/>
          <path id="Trazado_12536" data-name="Trazado 12536" d="M1304.752,567.936l-5.025-2.9c-.4-.233-.353-.639.113-.908l4.978-2.875a1.751,1.751,0,0,1,1.575-.065l5.025,2.9c.4.233.352.64-.114.909l-4.978,2.874A1.753,1.753,0,0,1,1304.752,567.936Z" fill="#5793ce"/>
          <path id="Trazado_12537" data-name="Trazado 12537" d="M1312.512,572.416l-5.025-2.9c-.4-.233-.353-.64.113-.909l4.979-2.875a1.749,1.749,0,0,1,1.574-.065l5.025,2.9c.4.233.352.64-.113.909l-4.979,2.875A1.749,1.749,0,0,1,1312.512,572.416Z" fill="#5793ce"/>
          <path id="Trazado_12538" data-name="Trazado 12538" d="M1320.272,576.9l-5.025-2.9c-.4-.233-.353-.64.113-.909l4.979-2.874a1.749,1.749,0,0,1,1.574-.066l5.025,2.9c.4.233.352.64-.113.909l-4.979,2.875A1.749,1.749,0,0,1,1320.272,576.9Z" fill="#5793ce"/>
          <path id="Trazado_12539" data-name="Trazado 12539" d="M1328.032,581.376l-5.025-2.9c-.4-.233-.353-.64.113-.909l4.979-2.874a1.749,1.749,0,0,1,1.574-.065l5.025,2.9c.4.233.353.64-.113.909l-4.979,2.874A1.749,1.749,0,0,1,1328.032,581.376Z" fill="#5793ce"/>
          <path id="Trazado_12540" data-name="Trazado 12540" d="M1335.792,585.857l-5.025-2.9c-.4-.232-.353-.639.113-.908l4.979-2.875a1.749,1.749,0,0,1,1.574-.065l5.025,2.9c.4.233.353.64-.113.909l-4.979,2.874A1.749,1.749,0,0,1,1335.792,585.857Z" fill="#5793ce"/>
          <path id="Trazado_12541" data-name="Trazado 12541" d="M1343.552,590.337l-5.025-2.9c-.4-.233-.353-.64.113-.909l4.979-2.875a1.749,1.749,0,0,1,1.574-.065l5.025,2.9c.4.233.353.64-.113.909l-4.979,2.875A1.749,1.749,0,0,1,1343.552,590.337Z" fill="#5793ce"/>
          <path id="Trazado_12542" data-name="Trazado 12542" d="M1351.312,594.817l-5.025-2.9c-.4-.233-.353-.64.113-.909l4.979-2.874a1.749,1.749,0,0,1,1.574-.066l5.025,2.9c.4.232.353.639-.113.908l-4.979,2.875A1.749,1.749,0,0,1,1351.312,594.817Z" fill="#5793ce"/>
          <path id="Trazado_12543" data-name="Trazado 12543" d="M1359.072,599.3l-5.025-2.9c-.4-.233-.353-.64.113-.909l4.979-2.874a1.749,1.749,0,0,1,1.574-.065l5.025,2.9c.4.233.353.64-.113.909l-4.979,2.874A1.749,1.749,0,0,1,1359.072,599.3Z" fill="#5793ce"/>
          <path id="Trazado_12544" data-name="Trazado 12544" d="M1285.145,547.893l-5.025-2.9c-.4-.233-.353-.64.113-.909l4.979-2.874a1.749,1.749,0,0,1,1.574-.065l5.025,2.9c.4.233.353.64-.113.909l-4.979,2.874A1.749,1.749,0,0,1,1285.145,547.893Z" fill="#5793ce"/>
          <path id="Trazado_12545" data-name="Trazado 12545" d="M1277.424,543.435l-5.025-2.9c-.4-.233-.353-.64.113-.909l4.979-2.874a1.749,1.749,0,0,1,1.574-.065l5.025,2.9c.4.233.353.64-.113.909L1279,543.37A1.749,1.749,0,0,1,1277.424,543.435Z" fill="#5793ce"/>
          <path id="Trazado_12546" data-name="Trazado 12546" d="M1269.7,538.977l-5.025-2.9c-.4-.233-.352-.64.113-.909l4.979-2.874a1.749,1.749,0,0,1,1.574-.065l5.025,2.9c.4.233.353.64-.113.909l-4.979,2.874A1.749,1.749,0,0,1,1269.7,538.977Z" fill="#5793ce"/>
          <path id="Trazado_12547" data-name="Trazado 12547" d="M1261.981,534.519l-5.025-2.9c-.4-.233-.353-.64.113-.909l4.979-2.874a1.749,1.749,0,0,1,1.574-.065l5.025,2.9c.4.233.353.64-.113.909l-4.979,2.874A1.749,1.749,0,0,1,1261.981,534.519Z" fill="#5793ce"/>
          <path id="Trazado_12548" data-name="Trazado 12548" d="M1269.921,529.935l-5.025-2.9c-.4-.233-.353-.64.113-.909l1.646-.95a1.749,1.749,0,0,1,1.574-.065l5.025,2.9c.4.233.353.64-.113.909l-1.646.95A1.749,1.749,0,0,1,1269.921,529.935Z" fill="#5793ce"/>
          <path id="Trazado_12549" data-name="Trazado 12549" d="M1280,535.753l-5.025-2.9c-.4-.233-.352-.64.113-.909l1.646-.95a1.753,1.753,0,0,1,1.574-.066l5.025,2.9c.4.233.353.639-.113.908l-1.646.951A1.749,1.749,0,0,1,1280,535.753Z" fill="#5793ce"/>
          <path id="Trazado_12550" data-name="Trazado 12550" d="M1287.687,540.192l-5.025-2.9c-.4-.233-.353-.64.113-.909l1.646-.95a1.749,1.749,0,0,1,1.574-.065l5.025,2.9c.4.233.353.64-.113.909l-1.646.95A1.749,1.749,0,0,1,1287.687,540.192Z" fill="#5793ce"/>
          <path id="Trazado_12551" data-name="Trazado 12551" d="M1295.376,544.632l-5.025-2.9c-.4-.233-.353-.64.113-.909l1.646-.95a1.749,1.749,0,0,1,1.574-.066l5.025,2.9c.4.233.353.64-.113.909l-1.646.95A1.749,1.749,0,0,1,1295.376,544.632Z" fill="#5793ce"/>
          <path id="Trazado_12552" data-name="Trazado 12552" d="M1303.065,549.071l-5.025-2.9c-.4-.233-.353-.64.113-.909l1.646-.95a1.749,1.749,0,0,1,1.574-.065l5.025,2.9c.4.233.353.64-.113.909l-1.646.95A1.749,1.749,0,0,1,1303.065,549.071Z" fill="#5793ce"/>
          <path id="Trazado_12553" data-name="Trazado 12553" d="M1345.993,573.856l-5.025-2.9c-.4-.232-.353-.639.113-.908l1.646-.951a1.749,1.749,0,0,1,1.574-.065l5.025,2.9c.4.233.353.64-.113.909l-1.646.95A1.749,1.749,0,0,1,1345.993,573.856Z" fill="#5793ce"/>
          <path id="Trazado_12554" data-name="Trazado 12554" d="M1353.682,578.295l-5.024-2.9c-.4-.233-.353-.64.113-.909l1.645-.95a1.751,1.751,0,0,1,1.575-.065l5.024,2.9c.4.233.353.64-.113.909l-1.645.95A1.751,1.751,0,0,1,1353.682,578.295Z" fill="#5793ce"/>
          <path id="Trazado_12555" data-name="Trazado 12555" d="M1361.372,582.734l-5.025-2.9c-.4-.233-.353-.64.113-.909l1.646-.95a1.749,1.749,0,0,1,1.574-.065l5.025,2.9c.4.233.353.64-.113.909l-1.646.95A1.749,1.749,0,0,1,1361.372,582.734Z" fill="#5793ce"/>
          <path id="Trazado_12556" data-name="Trazado 12556" d="M1369.061,587.174l-5.025-2.9c-.4-.233-.353-.64.113-.909l1.646-.95a1.749,1.749,0,0,1,1.574-.066l5.025,2.9c.4.232.353.639-.113.908l-1.646.951A1.749,1.749,0,0,1,1369.061,587.174Z" fill="#5793ce"/>
          <path id="Trazado_12557" data-name="Trazado 12557" d="M1292.905,552.374l-5.025-2.9c-.4-.232-.352-.639.113-.908l4.979-2.875a1.749,1.749,0,0,1,1.574-.065l5.025,2.9c.4.233.353.64-.113.909l-4.979,2.874A1.749,1.749,0,0,1,1292.905,552.374Z" fill="#5793ce"/>
          <path id="Trazado_12558" data-name="Trazado 12558" d="M1300.665,556.854l-5.025-2.9c-.4-.233-.352-.64.113-.909l4.979-2.875a1.749,1.749,0,0,1,1.574-.065l5.025,2.9c.4.233.353.64-.113.909l-4.979,2.875A1.749,1.749,0,0,1,1300.665,556.854Z" fill="#5793ce"/>
          <path id="Trazado_12559" data-name="Trazado 12559" d="M1308.425,561.334l-5.025-2.9c-.4-.233-.352-.64.113-.909l4.979-2.874a1.749,1.749,0,0,1,1.574-.066l5.025,2.9c.4.232.353.639-.113.908L1310,561.269A1.749,1.749,0,0,1,1308.425,561.334Z" fill="#5793ce"/>
          <path id="Trazado_12560" data-name="Trazado 12560" d="M1316.185,565.814l-5.024-2.9c-.4-.233-.353-.64.113-.909l4.978-2.874a1.749,1.749,0,0,1,1.574-.065l5.025,2.9c.4.233.353.64-.113.909l-4.978,2.874A1.751,1.751,0,0,1,1316.185,565.814Z" fill="#5793ce"/>
          <path id="Trazado_12561" data-name="Trazado 12561" d="M1323.946,570.295l-5.025-2.9c-.4-.233-.353-.64.113-.909l4.978-2.875a1.751,1.751,0,0,1,1.575-.065l5.025,2.9c.4.233.352.64-.114.909l-4.978,2.874A1.749,1.749,0,0,1,1323.946,570.295Z" fill="#5793ce"/>
          <path id="Trazado_12562" data-name="Trazado 12562" d="M1331.706,574.775l-5.025-2.9c-.4-.233-.353-.64.113-.909l4.979-2.875a1.749,1.749,0,0,1,1.574-.065l5.025,2.9c.4.233.352.64-.113.909l-4.979,2.875A1.749,1.749,0,0,1,1331.706,574.775Z" fill="#5793ce"/>
          <path id="Trazado_12563" data-name="Trazado 12563" d="M1339.466,579.255l-5.025-2.9c-.4-.233-.353-.64.113-.909l4.979-2.874a1.753,1.753,0,0,1,1.574-.066l5.025,2.9c.4.233.352.639-.113.908l-4.979,2.875A1.749,1.749,0,0,1,1339.466,579.255Z" fill="#5793ce"/>
          <path id="Trazado_12564" data-name="Trazado 12564" d="M1347.226,583.735l-5.025-2.9c-.4-.233-.353-.639.113-.908l4.979-2.875a1.749,1.749,0,0,1,1.574-.065l5.025,2.9c.4.233.353.64-.113.909l-4.979,2.874A1.749,1.749,0,0,1,1347.226,583.735Z" fill="#5793ce"/>
          <path id="Trazado_12565" data-name="Trazado 12565" d="M1354.986,588.216l-5.025-2.9c-.4-.233-.353-.64.113-.909l4.979-2.875a1.749,1.749,0,0,1,1.574-.065l5.025,2.9c.4.233.353.64-.113.909l-4.979,2.875A1.752,1.752,0,0,1,1354.986,588.216Z" fill="#5793ce"/>
          <path id="Trazado_12566" data-name="Trazado 12566" d="M1248.54,552.927l-14.8-8.544c-.4-.233-.353-.64.113-.909l4.979-2.875a1.749,1.749,0,0,1,1.574-.065l14.8,8.544c.4.233.353.64-.113.909l-4.979,2.875A1.749,1.749,0,0,1,1248.54,552.927Z" fill="#5793ce"/>
          <path id="Trazado_12567" data-name="Trazado 12567" d="M1343.874,607.968l-14.8-8.544c-.4-.233-.353-.64.113-.909l4.979-2.875a1.749,1.749,0,0,1,1.574-.065l14.8,8.544c.4.233.353.64-.113.909l-4.979,2.875A1.749,1.749,0,0,1,1343.874,607.968Z" fill="#5793ce"/>
          <path id="Trazado_12568" data-name="Trazado 12568" d="M1312.84,599.947l-5.025-2.9c-.4-.233-.352-.64.113-.909l5.932-3.424a1.749,1.749,0,0,1,1.574-.065l5.025,2.9c.4.233.353.64-.113.909l-5.932,3.424A1.749,1.749,0,0,1,1312.84,599.947Z" fill="#5793ce"/>
          <path id="Trazado_12569" data-name="Trazado 12569" d="M1256.487,567.411l-8.037-4.639c-.4-.233-.352-.64.113-.909l5.932-3.425a1.749,1.749,0,0,1,1.574-.065l8.036,4.64c.4.233.353.64-.113.909l-5.931,3.424A1.749,1.749,0,0,1,1256.487,567.411Z" fill="#5793ce"/>
          <path id="Trazado_12570" data-name="Trazado 12570" d="M1305.363,595.63l-8.036-4.639c-.4-.233-.353-.64.113-.909l5.931-3.425a1.749,1.749,0,0,1,1.574-.065l8.037,4.64c.4.233.353.64-.113.909l-5.931,3.424A1.751,1.751,0,0,1,1305.363,595.63Z" fill="#5793ce"/>
          <path id="Trazado_12571" data-name="Trazado 12571" d="M1267.683,573.875l-8.036-4.639c-.4-.233-.353-.64.113-.909l5.931-3.425a1.752,1.752,0,0,1,1.574-.065l8.036,4.64c.4.233.353.64-.113.909l-5.931,3.424A1.749,1.749,0,0,1,1267.683,573.875Z" fill="#5793ce"/>
          <path id="Trazado_12572" data-name="Trazado 12572" d="M1267.319,564.869l34.94,20.172a.478.478,0,0,1,0,.906l-6.048,3.492a1.731,1.731,0,0,1-1.57,0l-34.94-20.172Z" fill="#5793ce"/>
          <path id="Trazado_12573" data-name="Trazado 12573" d="M1334.529,608.07l5.6,3.232c.33.191.289.524-.093.745l-2.426,1.4a1.435,1.435,0,0,1-1.29.053l-5.6-3.231c-.33-.191-.289-.525.093-.745l2.426-1.4A1.434,1.434,0,0,1,1334.529,608.07Z" fill="#5793ce"/>
          <path id="Trazado_12574" data-name="Trazado 12574" d="M1326.7,603.553l5.6,3.232c.331.19.29.524-.092.744l-2.427,1.4a1.432,1.432,0,0,1-1.29.054l-5.6-3.232c-.331-.191-.289-.524.093-.745l2.426-1.4A1.435,1.435,0,0,1,1326.7,603.553Z" fill="#5793ce"/>
          <path id="Trazado_12575" data-name="Trazado 12575" d="M1318.944,599.073l5.6,3.231c.331.191.29.525-.092.745l-2.427,1.4a1.435,1.435,0,0,1-1.29.053l-5.6-3.231c-.331-.191-.289-.525.093-.745l2.426-1.4A1.435,1.435,0,0,1,1318.944,599.073Z" fill="#5793ce"/>
          <path id="Trazado_12576" data-name="Trazado 12576" d="M1330.989,601.079l5.6,3.231c.33.191.289.525-.093.745l-2.426,1.4a1.432,1.432,0,0,1-1.29.054l-5.6-3.232c-.33-.191-.289-.524.093-.745l2.426-1.4A1.435,1.435,0,0,1,1330.989,601.079Z" fill="#5793ce"/>
        </g>
        <g id="Grupo_6570" data-name="Grupo 6570">
          <path id="Trazado_12577" data-name="Trazado 12577" d="M1315.392,465.816l-12.621-7.287.538-2.717,12.621,7.287Z" fill="#d4ecff"/>
          <path id="Trazado_12578" data-name="Trazado 12578" d="M1314.022,472.131l-12.621-7.287.538-2.717,12.621,7.287Z" fill="#fff"/>
          <path id="Trazado_12579" data-name="Trazado 12579" d="M1375.969,559.724l-12.621-7.287.538-2.717,12.621,7.287Z" fill="#d4ecff"/>
          <path id="Trazado_12580" data-name="Trazado 12580" d="M1311.283,484.761l-12.621-7.287.538-2.717,12.621,7.287Z" fill="#d4ecff"/>
        </g>
        <path id="Trazado_12581" data-name="Trazado 12581" d="M1365.07,520.281l-46.69-26.956.6-3.035,46.69,26.956Z" fill="#d4ecff"/>
        <path id="Trazado_12582" data-name="Trazado 12582" d="M1348.348,525.4l-32.592-18.817.6-3.035,32.592,18.817Z" fill="#d4ecff"/>
        <path id="Trazado_12583" data-name="Trazado 12583" d="M1345.264,516.234l-28.2-16.279.6-3.035,28.2,16.279Z" fill="#fff"/>
        <g id="Grupo_6571" data-name="Grupo 6571">
          <path id="Trazado_12584" data-name="Trazado 12584" d="M1339.279,490.19a1.759,1.759,0,0,1-2.535.78,2.205,2.205,0,0,1-.907-2.768,1.759,1.759,0,0,1,2.534-.781A2.207,2.207,0,0,1,1339.279,490.19Z" fill="#ff2c9c"/>
          <path id="Trazado_12585" data-name="Trazado 12585" d="M1345.352,493.7a1.759,1.759,0,0,1-2.535.78,2.206,2.206,0,0,1-.908-2.768,1.759,1.759,0,0,1,2.535-.781A2.208,2.208,0,0,1,1345.352,493.7Z" fill="#fff"/>
          <path id="Trazado_12586" data-name="Trazado 12586" d="M1351.424,497.2a1.759,1.759,0,0,1-2.535.781,2.206,2.206,0,0,1-.908-2.768,1.76,1.76,0,0,1,2.535-.781A2.206,2.206,0,0,1,1351.424,497.2Z" fill="#d4ecff"/>
          <path id="Trazado_12587" data-name="Trazado 12587" d="M1357.5,500.707a1.759,1.759,0,0,1-2.535.781,2.206,2.206,0,0,1-.907-2.768,1.759,1.759,0,0,1,2.534-.781A2.206,2.206,0,0,1,1357.5,500.707Z" fill="#ff2c9c"/>
        </g>
        <path id="Trazado_12588" data-name="Trazado 12588" d="M1363.758,526.911l-14.1-8.139.6-3.035,14.1,8.139Z" fill="#ff2c9c"/>
      </g>
    </g>
    <g id="Grupo_6591" data-name="Grupo 6591">
      <path id="Trazado_12589" data-name="Trazado 12589" d="M1414.185,693.466,1368.179,666.9c-1.686-.973-1.475-2.673.472-3.8l48.762-28.226a7.313,7.313,0,0,1,6.578-.273L1470,661.17c1.686.973,1.475,2.674-.472,3.8l-48.762,28.225A7.312,7.312,0,0,1,1414.185,693.466Z" fill="#7dc3ea"/>
      <path id="Trazado_12590" data-name="Trazado 12590" d="M1417.048,684.738a7.206,7.206,0,0,1-3.545-.833L1367.5,657.343a3.3,3.3,0,0,1-1.821-2.83,4.01,4.01,0,0,1,2.292-3.329l48.76-28.226a8.7,8.7,0,0,1,7.944-.272l46.006,26.561a3.305,3.305,0,0,1,1.821,2.83,4.012,4.012,0,0,1-2.293,3.329l-48.76,28.226A9,9,0,0,1,1417.048,684.738Zm4.1-60.165a6.338,6.338,0,0,0-3.057.748l-48.759,28.224c-.683.394-.93.794-.93.968,0,.1.14.286.456.469l46.007,26.561a6.006,6.006,0,0,0,5.214-.273l48.759-28.225c.683-.393.93-.795.93-.968,0-.1-.141-.286-.456-.468l-46.006-26.562A4.446,4.446,0,0,0,1421.151,624.573Z" fill="#fff"/>
      <g id="Grupo_6590" data-name="Grupo 6590">
        <g id="Grupo_6589" data-name="Grupo 6589">
          <g id="Grupo_6584" data-name="Grupo 6584">
            <g id="Grupo_6576" data-name="Grupo 6576">
              <g id="Grupo_6575" data-name="Grupo 6575">
                <g id="Grupo_6574" data-name="Grupo 6574">
                  <path id="Trazado_12591" data-name="Trazado 12591" d="M1417.506,553.653s-25.259,2.406-40.471,3.575l40.349,114.915,53.371-30.783.027-.015.095-.055,0,0a2.973,2.973,0,0,0,1.09-2.635V526.331a8.126,8.126,0,0,0-.927-3.585Z" fill="url(#radial-gradient-8)"/>
                  <path id="Trazado_12592" data-name="Trazado 12592" d="M1468.66,520.016l-46.937-27.1a2.124,2.124,0,0,0-2.138-.185h0L1366,523.646l2.525,9.344,13.436,38.265,2.529,1.46,86.552-49.97A6.611,6.611,0,0,0,1468.66,520.016Z" fill="url(#linear-gradient-9)"/>
                  <path id="Trazado_12593" data-name="Trazado 12593" d="M1412.777,534.672l40.691-23.427-31.744-18.328a2.126,2.126,0,0,0-2.139-.185h0L1379.9,515.625Z" fill="#173d7a" opacity="0.5"/>
                  <path id="Trazado_12594" data-name="Trazado 12594" d="M1415.113,672.039l-46.936-27.1a7.913,7.913,0,0,1-3.305-6.315V526.3c0-2.434,1.479-3.553,3.305-2.5l46.936,27.1a7.913,7.913,0,0,1,3.3,6.315V669.54C1418.418,671.974,1416.939,673.093,1415.113,672.039Z" fill="#5793ce"/>
                  <path id="Trazado_12595" data-name="Trazado 12595" d="M1416.12,550.341l-46.937-27.1a1.951,1.951,0,0,0-2.6.191,2.438,2.438,0,0,1,1.594.373l46.936,27.1a7.913,7.913,0,0,1,3.3,6.315V669.54a3.431,3.431,0,0,1-.7,2.308c1.02-.162,1.712-1.209,1.712-2.872V556.656A7.916,7.916,0,0,0,1416.12,550.341Z" fill="#fff"/>
                  <path id="Trazado_12596" data-name="Trazado 12596" d="M1412.161,665.277l-41.032-23.689a6.923,6.923,0,0,1-2.889-5.521V531.753c0-2.127,1.294-3.1,2.889-2.184l41.032,23.69a6.919,6.919,0,0,1,2.889,5.52V663.093C1415.05,665.22,1413.756,666.2,1412.161,665.277Z" fill="url(#linear-gradient-10)"/>
                  <path id="Trazado_12597" data-name="Trazado 12597" d="M1412.161,665.277l-41.032-23.689a6.923,6.923,0,0,1-2.889-5.521V531.753c0-2.127,1.294-3.1,2.889-2.184l41.032,23.69a6.919,6.919,0,0,1,2.889,5.52V663.093C1415.05,665.22,1413.756,666.2,1412.161,665.277Z" fill="url(#linear-gradient-10)"/>
                  <path id="Trazado_12598" data-name="Trazado 12598" d="M1412.161,665.277l-41.032-23.689a6.923,6.923,0,0,1-2.889-5.521V531.753c0-2.127,1.294-3.1,2.889-2.184l41.032,23.69a6.919,6.919,0,0,1,2.889,5.52V663.093C1415.05,665.22,1413.756,666.2,1412.161,665.277Z" fill="#173d7a"/>
                  <path id="Trazado_12599" data-name="Trazado 12599" d="M1413.5,664.488,1372.47,640.8a6.918,6.918,0,0,1-2.889-5.52V530.965a3.344,3.344,0,0,1,.414-1.742c-1.031-.008-1.755.94-1.755,2.53V636.067a6.923,6.923,0,0,0,2.889,5.521l41.032,23.689a1.672,1.672,0,0,0,2.474-.443A2.313,2.313,0,0,1,1413.5,664.488Z" fill="#396caa"/>
                </g>
              </g>
            </g>
            <g id="Grupo_6578" data-name="Grupo 6578">
              <g id="Grupo_6577" data-name="Grupo 6577">
                <path id="Trazado_12600" data-name="Trazado 12600" d="M1412.161,617.385l-15.251-8.8-24.324,14.043,42.464,24.517V622.906A6.921,6.921,0,0,0,1412.161,617.385Z" fill="#173d7a"/>
                <path id="Trazado_12601" data-name="Trazado 12601" d="M1412.161,596.009l-15.251-8.8-24.324,14.043,42.464,24.516V601.53A6.923,6.923,0,0,0,1412.161,596.009Z" fill="#173d7a"/>
                <path id="Trazado_12602" data-name="Trazado 12602" d="M1412.161,574.634l-15.251-8.8-24.324,14.043,42.464,24.517V580.155A6.921,6.921,0,0,0,1412.161,574.634Z" fill="#173d7a"/>
                <path id="Trazado_12603" data-name="Trazado 12603" d="M1412.161,553.259l-15.251-8.8L1372.586,558.5l42.464,24.516V558.779A6.919,6.919,0,0,0,1412.161,553.259Z" fill="#173d7a"/>
                <path id="Trazado_12604" data-name="Trazado 12604" d="M1412.161,553.259,1378.4,533.766l-5.812,3.355,42.464,24.516v-2.858A6.919,6.919,0,0,0,1412.161,553.259Z" fill="#173d7a"/>
              </g>
              <path id="Trazado_12605" data-name="Trazado 12605" d="M1415.05,561.638l-42.464-24.517v13.51l42.464,24.516Z" fill="#5793ce"/>
              <path id="Trazado_12606" data-name="Trazado 12606" d="M1415.05,583.013,1372.586,558.5v13.51l42.464,24.516Z" fill="#5793ce"/>
              <path id="Trazado_12607" data-name="Trazado 12607" d="M1415.05,604.388l-42.464-24.517v13.51L1415.05,617.9Z" fill="#5793ce"/>
              <path id="Trazado_12608" data-name="Trazado 12608" d="M1415.05,625.764l-42.464-24.517v13.51l42.464,24.516Z" fill="#5793ce"/>
              <path id="Trazado_12609" data-name="Trazado 12609" d="M1415.05,647.139l-42.464-24.516v13.51l42.464,24.516Z" fill="#5793ce"/>
            </g>
            <g id="Grupo_6579" data-name="Grupo 6579">
              <path id="Trazado_12610" data-name="Trazado 12610" d="M1411.305,570.333l-31.984-18.466a3.915,3.915,0,0,1-1.635-3.124v-3.618c0-1.2.732-1.757,1.635-1.236l31.984,18.466a3.915,3.915,0,0,1,1.635,3.124V569.1C1412.94,570.3,1412.208,570.855,1411.305,570.333Z" fill="#173d7a"/>
              <path id="Trazado_12611" data-name="Trazado 12611" d="M1380.937,551.175a3.917,3.917,0,0,1-1.635-3.125v-3.618a2.346,2.346,0,0,1,.06-.519l-.041-.024c-.9-.521-1.635.032-1.635,1.236v3.618a3.915,3.915,0,0,0,1.635,3.124l31.984,18.466a.979.979,0,0,0,1.575-.716Z" fill="#06033e" opacity="0.3"/>
              <path id="Trazado_12612" data-name="Trazado 12612" d="M1401.268,560.416,1382.022,549.3a1.376,1.376,0,0,1-.576-1.1h0c0-.423.258-.618.576-.434l19.246,11.112a1.376,1.376,0,0,1,.576,1.1h0C1401.844,560.405,1401.586,560.6,1401.268,560.416Z" fill="#fff"/>
            </g>
            <g id="Grupo_6580" data-name="Grupo 6580">
              <path id="Trazado_12613" data-name="Trazado 12613" d="M1411.305,591.577l-31.984-18.466a3.917,3.917,0,0,1-1.635-3.124v-3.618c0-1.205.732-1.758,1.635-1.237l31.984,18.466a3.917,3.917,0,0,1,1.635,3.125v3.618C1412.94,591.545,1412.208,592.1,1411.305,591.577Z" fill="#173d7a"/>
              <path id="Trazado_12614" data-name="Trazado 12614" d="M1380.937,572.418a3.915,3.915,0,0,1-1.635-3.124v-3.618a2.356,2.356,0,0,1,.06-.52l-.041-.023c-.9-.522-1.635.031-1.635,1.236v3.618a3.917,3.917,0,0,0,1.635,3.124l31.984,18.466a.979.979,0,0,0,1.575-.717Z" fill="#06033e" opacity="0.3"/>
              <path id="Trazado_12615" data-name="Trazado 12615" d="M1401.268,581.66l-19.246-11.112a1.379,1.379,0,0,1-.576-1.1h0c0-.424.258-.618.576-.435l19.246,11.112a1.379,1.379,0,0,1,.576,1.1h0C1401.844,581.649,1401.586,581.843,1401.268,581.66Z" fill="#fff"/>
            </g>
            <g id="Grupo_6581" data-name="Grupo 6581">
              <path id="Trazado_12616" data-name="Trazado 12616" d="M1411.305,613.018l-31.984-18.466a3.915,3.915,0,0,1-1.635-3.124V587.81c0-1.2.732-1.757,1.635-1.236l31.984,18.466a3.915,3.915,0,0,1,1.635,3.124v3.618C1412.94,612.986,1412.208,613.54,1411.305,613.018Z" fill="#173d7a"/>
              <path id="Trazado_12617" data-name="Trazado 12617" d="M1380.937,593.86a3.919,3.919,0,0,1-1.635-3.125v-3.618a2.346,2.346,0,0,1,.06-.519l-.041-.024c-.9-.522-1.635.032-1.635,1.236v3.618a3.915,3.915,0,0,0,1.635,3.124l31.984,18.466a.979.979,0,0,0,1.575-.716Z" fill="#06033e" opacity="0.3"/>
              <path id="Trazado_12618" data-name="Trazado 12618" d="M1401.268,603.1l-19.246-11.112a1.376,1.376,0,0,1-.576-1.1h0c0-.423.258-.618.576-.435l19.246,11.113a1.376,1.376,0,0,1,.576,1.1h0C1401.844,603.09,1401.586,603.285,1401.268,603.1Z" fill="#d4ecff"/>
            </g>
            <g id="Grupo_6582" data-name="Grupo 6582">
              <path id="Trazado_12619" data-name="Trazado 12619" d="M1411.305,634.658l-31.984-18.466a3.918,3.918,0,0,1-1.635-3.125v-3.618c0-1.2.732-1.757,1.635-1.236l31.984,18.466a3.917,3.917,0,0,1,1.635,3.124v3.618C1412.94,634.625,1412.208,635.179,1411.305,634.658Z" fill="#173d7a"/>
              <path id="Trazado_12620" data-name="Trazado 12620" d="M1380.937,615.5a3.917,3.917,0,0,1-1.635-3.124v-3.618a2.356,2.356,0,0,1,.06-.52l-.041-.024c-.9-.521-1.635.032-1.635,1.236v3.618a3.917,3.917,0,0,0,1.635,3.125l31.984,18.465a.979.979,0,0,0,1.575-.716Z" fill="#06033e" opacity="0.3"/>
              <path id="Trazado_12621" data-name="Trazado 12621" d="M1401.268,624.741l-19.246-11.112a1.379,1.379,0,0,1-.576-1.1h0c0-.424.258-.619.576-.435l19.246,11.112a1.376,1.376,0,0,1,.576,1.1h0C1401.844,624.73,1401.586,624.924,1401.268,624.741Z" fill="#ff2c9c"/>
            </g>
            <g id="Grupo_6583" data-name="Grupo 6583">
              <path id="Trazado_12622" data-name="Trazado 12622" d="M1411.305,655.868,1379.321,637.4a3.915,3.915,0,0,1-1.635-3.124V630.66c0-1.2.732-1.758,1.635-1.236l31.984,18.466a3.915,3.915,0,0,1,1.635,3.124v3.618C1412.94,655.836,1412.208,656.389,1411.305,655.868Z" fill="#173d7a"/>
              <path id="Trazado_12623" data-name="Trazado 12623" d="M1380.937,636.709a3.915,3.915,0,0,1-1.635-3.124v-3.618a2.362,2.362,0,0,1,.06-.52l-.041-.023c-.9-.522-1.635.032-1.635,1.236v3.618a3.915,3.915,0,0,0,1.635,3.124l31.984,18.466a.979.979,0,0,0,1.575-.716Z" fill="#06033e" opacity="0.3"/>
              <path id="Trazado_12624" data-name="Trazado 12624" d="M1401.268,645.951l-19.246-11.112a1.376,1.376,0,0,1-.576-1.1h0c0-.423.258-.618.576-.435l19.246,11.113a1.376,1.376,0,0,1,.576,1.1h0C1401.844,645.94,1401.586,646.135,1401.268,645.951Z" fill="#d4ecff"/>
            </g>
            <path id="Trazado_12625" data-name="Trazado 12625" d="M1372.586,537.121l3.344,1.931v13.51l-3.344-1.93Z" fill="#173d7a" opacity="0.5"/>
            <path id="Trazado_12626" data-name="Trazado 12626" d="M1372.586,558.5l3.344,1.931v13.51l-3.344-1.93Z" fill="#173d7a" opacity="0.5"/>
            <path id="Trazado_12627" data-name="Trazado 12627" d="M1372.586,579.872l3.344,1.931v13.51l-3.344-1.931Z" fill="#173d7a" opacity="0.5"/>
            <path id="Trazado_12628" data-name="Trazado 12628" d="M1372.586,601.247l3.344,1.931v13.51l-3.344-1.931Z" fill="#173d7a" opacity="0.5"/>
            <path id="Trazado_12629" data-name="Trazado 12629" d="M1372.586,622.623l3.344,1.93v13.51l-3.344-1.931Z" fill="#173d7a" opacity="0.5"/>
          </g>
          <path id="Trazado_12630" data-name="Trazado 12630" d="M1405.06,561.751c0,.431-.3.606-.677.39a1.493,1.493,0,0,1-.677-1.172c0-.432.3-.607.677-.391A1.5,1.5,0,0,1,1405.06,561.751Z" fill="#d4ecff"/>
          <path id="Trazado_12631" data-name="Trazado 12631" d="M1407.93,563.408c0,.431-.3.606-.677.391a1.5,1.5,0,0,1-.677-1.173c0-.432.3-.607.677-.391A1.5,1.5,0,0,1,1407.93,563.408Z" fill="#ff2c9c"/>
          <path id="Trazado_12632" data-name="Trazado 12632" d="M1410.8,565.065c0,.432-.3.607-.677.391a1.5,1.5,0,0,1-.677-1.173c0-.432.3-.607.677-.391A1.5,1.5,0,0,1,1410.8,565.065Z" fill="#d4ecff"/>
          <path id="Trazado_12633" data-name="Trazado 12633" d="M1405.06,583.115c0,.432-.3.607-.677.391a1.5,1.5,0,0,1-.677-1.173c0-.431.3-.606.677-.39A1.494,1.494,0,0,1,1405.06,583.115Z" fill="#ff2c9c"/>
          <path id="Trazado_12634" data-name="Trazado 12634" d="M1407.93,584.772c0,.432-.3.607-.677.391a1.5,1.5,0,0,1-.677-1.172c0-.432.3-.607.677-.391A1.5,1.5,0,0,1,1407.93,584.772Z" fill="#d4ecff"/>
          <path id="Trazado_12635" data-name="Trazado 12635" d="M1410.8,586.43c0,.431-.3.606-.677.39a1.5,1.5,0,0,1-.677-1.172c0-.432.3-.607.677-.391A1.5,1.5,0,0,1,1410.8,586.43Z" fill="#fff"/>
          <path id="Trazado_12636" data-name="Trazado 12636" d="M1405.06,604.641c0,.432-.3.607-.677.391a1.5,1.5,0,0,1-.677-1.173c0-.431.3-.606.677-.39A1.5,1.5,0,0,1,1405.06,604.641Z" fill="#fff"/>
          <path id="Trazado_12637" data-name="Trazado 12637" d="M1407.93,606.3c0,.432-.3.607-.677.391a1.5,1.5,0,0,1-.677-1.172c0-.432.3-.607.677-.391A1.5,1.5,0,0,1,1407.93,606.3Z" fill="#ff2c9c"/>
          <path id="Trazado_12638" data-name="Trazado 12638" d="M1410.8,607.956c0,.431-.3.606-.677.39a1.493,1.493,0,0,1-.677-1.172c0-.432.3-.607.677-.391A1.5,1.5,0,0,1,1410.8,607.956Z" fill="#fff"/>
          <path id="Trazado_12639" data-name="Trazado 12639" d="M1405.06,625.854c0,.431-.3.606-.677.391a1.5,1.5,0,0,1-.677-1.173c0-.432.3-.607.677-.391A1.5,1.5,0,0,1,1405.06,625.854Z" fill="#fff"/>
          <path id="Trazado_12640" data-name="Trazado 12640" d="M1407.93,627.511c0,.432-.3.607-.677.391a1.5,1.5,0,0,1-.677-1.173c0-.432.3-.607.677-.391A1.5,1.5,0,0,1,1407.93,627.511Z" fill="#d4ecff"/>
          <path id="Trazado_12641" data-name="Trazado 12641" d="M1410.8,629.168c0,.432-.3.607-.677.391a1.5,1.5,0,0,1-.677-1.173c0-.431.3-.606.677-.391A1.5,1.5,0,0,1,1410.8,629.168Z" fill="#d4ecff"/>
          <path id="Trazado_12642" data-name="Trazado 12642" d="M1405.06,647.356c0,.431-.3.606-.677.39a1.493,1.493,0,0,1-.677-1.172c0-.432.3-.607.677-.391A1.5,1.5,0,0,1,1405.06,647.356Z" fill="#fff"/>
          <path id="Trazado_12643" data-name="Trazado 12643" d="M1407.93,649.013c0,.431-.3.606-.677.391a1.5,1.5,0,0,1-.677-1.173c0-.432.3-.607.677-.391A1.5,1.5,0,0,1,1407.93,649.013Z" fill="#ff2c9c"/>
          <path id="Trazado_12644" data-name="Trazado 12644" d="M1410.8,650.67c0,.432-.3.607-.677.391a1.5,1.5,0,0,1-.677-1.173c0-.432.3-.607.677-.391A1.5,1.5,0,0,1,1410.8,650.67Z" fill="#d4ecff"/>
          <g id="Grupo_6585" data-name="Grupo 6585">
            <path id="Trazado_12645" data-name="Trazado 12645" d="M1425.488,656.856V561.214l.2-.114,39.971-23.077v95.642l-.2.113Zm.791-95.184v93.813l38.587-22.278V539.394Z" fill="#173d7a"/>
          </g>
          <g id="Grupo_6588" data-name="Grupo 6588">
            <path id="Trazado_12646" data-name="Trazado 12646" d="M1455.274,581.055,1437.351,591.4c-1.2.7-2.18-.043-2.18-1.648v-9.937a5.222,5.222,0,0,1,2.18-4.166l17.923-10.347c1.2-.7,2.18.042,2.18,1.648v9.937A5.22,5.22,0,0,1,1455.274,581.055Z" fill="#173d7a"/>
            <path id="Trazado_12647" data-name="Trazado 12647" d="M1455.709,565.112a2.892,2.892,0,0,1,.161,1v9.937a5.22,5.22,0,0,1-2.18,4.165l-17.922,10.348a2.11,2.11,0,0,1-.435.192,1.27,1.27,0,0,0,2.018.652l17.923-10.348a5.22,5.22,0,0,0,2.18-4.165v-9.937C1457.454,565.546,1456.7,564.806,1455.709,565.112Z" fill="#5793ce"/>
            <g id="Grupo_6587" data-name="Grupo 6587">
              <g id="Grupo_6586" data-name="Grupo 6586">
                <path id="Trazado_12648" data-name="Trazado 12648" d="M1452,575.071c.332-.192.6-.037.6.346v2.264a1.326,1.326,0,0,1-.6,1.039c-.331.191-.6.036-.6-.347V576.11A1.326,1.326,0,0,1,1452,575.071Z" fill="#fff"/>
                <path id="Trazado_12649" data-name="Trazado 12649" d="M1449.429,576.838c.331-.191.6-.036.6.346v1.981a1.326,1.326,0,0,1-.6,1.039c-.331.191-.6.036-.6-.346v-1.981A1.326,1.326,0,0,1,1449.429,576.838Z" fill="#d4ecff"/>
                <path id="Trazado_12650" data-name="Trazado 12650" d="M1446.858,576.112c.331-.191.6-.036.6.347v4.19a1.326,1.326,0,0,1-.6,1.039c-.331.192-.6.037-.6-.346v-4.191A1.329,1.329,0,0,1,1446.858,576.112Z" fill="#ff2c9c"/>
                <path id="Trazado_12651" data-name="Trazado 12651" d="M1444.287,575.182c.331-.191.6-.036.6.346v6.606a1.329,1.329,0,0,1-.6,1.039c-.332.191-.6.036-.6-.347v-6.6A1.324,1.324,0,0,1,1444.287,575.182Z" fill="#d4ecff"/>
                <path id="Trazado_12652" data-name="Trazado 12652" d="M1441.716,577.359c.331-.191.6-.036.6.346v5.913a1.326,1.326,0,0,1-.6,1.039c-.332.192-.6.037-.6-.346V578.4A1.325,1.325,0,0,1,1441.716,577.359Z" fill="#d4ecff"/>
                <path id="Trazado_12653" data-name="Trazado 12653" d="M1439.145,581.545c.331-.191.6-.036.6.346V585.1a1.329,1.329,0,0,1-.6,1.039c-.332.191-.6.036-.6-.347v-3.211A1.323,1.323,0,0,1,1439.145,581.545Z" fill="#fff"/>
              </g>
              <path id="Trazado_12654" data-name="Trazado 12654" d="M1451.41,573.927c0,.376.264.529.59.341a1.3,1.3,0,0,0,.59-1.022c0-.376-.264-.529-.59-.341A1.3,1.3,0,0,0,1451.41,573.927Z" fill="#ff2c9c"/>
              <path id="Trazado_12655" data-name="Trazado 12655" d="M1451.41,571.8c0,.377.264.529.59.341a1.3,1.3,0,0,0,.59-1.022c0-.376-.264-.529-.59-.34A1.3,1.3,0,0,0,1451.41,571.8Z" fill="#fff"/>
            </g>
          </g>
        </g>
      </g>
    </g>
    <g id="Grupo_6596" data-name="Grupo 6596">
      <g id="Grupo_6594" data-name="Grupo 6594">
        <g id="Grupo_6592" data-name="Grupo 6592">
          <path id="Trazado_12656" data-name="Trazado 12656" d="M1466.792,477.555l-8.1-4.674,29.85-17.234c1.41-.814,1.41-2.139,0-2.953l-30.494-17.606a5.66,5.66,0,0,0-5.114,0l-29.85,17.234-8.1-4.674,29.85-17.234c5.873-3.391,15.431-3.391,21.3,0l30.495,17.606c5.874,3.392,5.874,8.91,0,12.3Z" fill="url(#radial-gradient-9)"/>
        </g>
        <g id="Grupo_6593" data-name="Grupo 6593">
          <path id="Trazado_12657" data-name="Trazado 12657" d="M1479.856,479.613c0-4.328-2.632-9.356-5.878-11.23L1419.9,437.158a3.772,3.772,0,0,0-3.808-.325l0,0-64.574,37.525,62.446,47.054,63.617-36.924a2.912,2.912,0,0,0,.563-.326h0C1479.2,483.354,1479.856,481.775,1479.856,479.613Z" fill="url(#linear-gradient-12)"/>
          <path id="Trazado_12658" data-name="Trazado 12658" d="M1413.956,521.409l63.617-36.924a2.912,2.912,0,0,0,.563-.326h0c1.063-.8,1.72-2.383,1.72-4.545a14.433,14.433,0,0,0-1.584-6.255l-72.52,41.87Z" fill="#396caa"/>
          <path id="Trazado_12659" data-name="Trazado 12659" d="M1409.889,521.242l-54.083-31.224c-3.246-1.874-5.878-6.9-5.878-11.231h0c0-4.328,2.632-6.317,5.878-4.443l54.083,31.225c3.246,1.874,5.877,6.9,5.877,11.23h0C1415.766,521.127,1413.135,523.117,1409.889,521.242Z" fill="url(#radial-gradient-10)"/>
          <path id="Trazado_12660" data-name="Trazado 12660" d="M1410.54,505.273l-54.083-31.225a3.734,3.734,0,0,0-3.888-.275,4.086,4.086,0,0,1,3.237.571l54.083,31.225c3.246,1.874,5.878,6.9,5.878,11.23h0c0,2.338-.773,3.986-1.991,4.718,1.591-.484,2.641-2.281,2.641-5.013h0C1416.417,512.175,1413.786,507.147,1410.54,505.273Z" fill="#fff"/>
        </g>
        <path id="Trazado_12661" data-name="Trazado 12661" d="M1401.788,510.712l-6.5-3.751a2.8,2.8,0,0,1-1.171-2.238h0c0-.863.524-1.26,1.171-.886l6.5,3.751a2.8,2.8,0,0,1,1.172,2.238h0C1402.96,510.689,1402.435,511.085,1401.788,510.712Z" fill="#ff2c9c"/>
      </g>
      <g id="Grupo_6595" data-name="Grupo 6595">
        <path id="Trazado_12662" data-name="Trazado 12662" d="M1410.1,466.865c1.7-1.005,1.683-2.6-.037-3.575a6.845,6.845,0,0,0-6.192.065c-1.7,1-1.682,2.606.038,3.575A6.843,6.843,0,0,0,1410.1,466.865Z" fill="#5793ce"/>
        <path id="Trazado_12663" data-name="Trazado 12663" d="M1419.532,472.182c1.7-1.005,1.682-2.606-.038-3.575a6.843,6.843,0,0,0-6.191.065c-1.7,1.005-1.683,2.605.037,3.574A6.842,6.842,0,0,0,1419.532,472.182Z" fill="#fff"/>
        <path id="Trazado_12664" data-name="Trazado 12664" d="M1428.967,477.5c1.7-1,1.683-2.6-.037-3.574a6.842,6.842,0,0,0-6.192.064c-1.7,1.005-1.683,2.606.038,3.575A6.843,6.843,0,0,0,1428.967,477.5Z" fill="#fff"/>
      </g>
    </g>
    <path id="Trazado_12665" data-name="Trazado 12665" d="M1141.089,632.724a5.708,5.708,0,0,1-2.891-.753c-2.046-1.182-3.173-3.565-3.173-6.71,0-6.021,4.084-13.094,9.3-16.1,2.725-1.572,5.35-1.789,7.4-.606s3.174,3.565,3.174,6.711c0,6.019-4.083,13.093-9.3,16.1A9.12,9.12,0,0,1,1141.089,632.724Zm7.732-22.374a6.633,6.633,0,0,0-3.224,1.015c-4.424,2.554-8.023,8.788-8.023,13.9,0,2.2.675,3.8,1.9,4.5s2.947.491,4.849-.607c4.424-2.554,8.023-8.788,8.023-13.9,0-2.2-.675-3.8-1.9-4.5A3.216,3.216,0,0,0,1148.821,610.35Z" fill="url(#radial-gradient-11)"/>
    <path id="Trazado_12666" data-name="Trazado 12666" d="M1493.974,568.59a1.273,1.273,0,0,1-1.274-1.274V550.983a1.277,1.277,0,0,1,.637-1.1l14.145-8.167a1.275,1.275,0,0,1,1.912,1.1v16.333a1.274,1.274,0,0,1-.637,1.1l-14.145,8.167A1.284,1.284,0,0,1,1493.974,568.59Zm1.275-16.871v13.389l11.6-6.7V545.024Zm12.871,7.43h0Z" fill="#ff2c9c"/>
    <path id="Trazado_12667" data-name="Trazado 12667" d="M1267.4,609.3l-36.787-21.239c-.9-.519-.787-1.426.252-2.025l19.4-11.2a3.9,3.9,0,0,1,3.508-.146l36.787,21.239c.9.519.787,1.426-.252,2.026l-19.4,11.2A3.9,3.9,0,0,1,1267.4,609.3Z" fill="#fff"/>
  </g>
</svg>
